<?xml version="1.0" standalone="no"?>
<!DOCTYPE svg PUBLIC "-//W3C//DTD SVG 20010904//EN"
 "http://www.w3.org/TR/2001/REC-SVG-20010904/DTD/svg10.dtd">
<svg version="1.0" xmlns="http://www.w3.org/2000/svg"
 width="640.000000pt" height="640.000000pt" viewBox="0 0 640.000000 640.000000"
 preserveAspectRatio="xMidYMid meet">
<metadata>
Created by potrace 1.11, written by Peter Selinger 2001-2013
</metadata>
<g transform="translate(0.000000,640.000000) scale(0.100000,-0.100000)"
fill="#000000" stroke="none">
<path d="M3460 4200 c-14 -4 -45 -17 -69 -29 -25 -11 -56 -21 -70 -21 -83 0
-140 -100 -92 -161 10 -13 21 -42 24 -64 5 -46 18 -78 45 -117 l18 -28 -46
-49 c-26 -28 -63 -83 -83 -124 l-36 -74 -168 -73 c-92 -40 -181 -78 -198 -86
-146 -64 -239 -104 -245 -104 -4 0 -6 17 -4 38 3 47 15 267 19 352 3 58 15
266 19 330 1 14 7 35 14 47 25 46 0 113 -43 113 -45 0 -70 -74 -40 -117 19
-27 20 -41 11 -183 -10 -168 -25 -421 -31 -545 -1 -31 2 -58 7 -61 5 -3 12
-14 16 -24 6 -16 25 -10 177 56 94 41 179 78 190 83 36 17 256 111 260 111 1
0 -1 -17 -6 -37 -11 -47 -4 -236 10 -281 9 -29 8 -34 -12 -41 -12 -5 -141 -61
-287 -124 -146 -63 -281 -121 -300 -130 -41 -16 -22 35 -200 -534 -47 -150
-68 -204 -81 -208 -26 -9 -35 -69 -16 -99 23 -34 52 -38 78 -10 18 19 20 30
15 69 -6 40 2 77 69 288 144 458 137 437 165 451 49 26 592 257 594 254 1 -2
9 -19 18 -38 9 -19 26 -49 38 -67 21 -31 21 -33 3 -48 -10 -8 -103 -84 -208
-168 l-190 -153 -93 -369 c-51 -202 -102 -387 -113 -411 -26 -51 -20 -86 17
-111 26 -17 27 -16 50 11 27 31 31 63 11 91 -12 16 -2 67 79 389 52 204 94
371 94 372 0 0 39 32 88 70 106 84 121 96 136 109 6 6 48 41 94 77 l83 67 46
-35 c78 -60 128 -78 218 -78 97 -1 136 12 216 70 l61 45 78 -48 c270 -165 340
-210 346 -223 4 -8 8 -35 10 -60 1 -25 5 -74 8 -110 3 -36 8 -101 11 -145 10
-127 12 -163 21 -275 4 -58 7 -134 7 -170 -2 -70 12 -104 46 -113 15 -3 27 3
41 20 28 36 25 70 -8 103 -16 15 -29 34 -29 42 -1 27 -14 224 -18 258 -2 19
-6 80 -10 135 -3 55 -8 123 -10 150 -2 28 -7 84 -10 124 -3 41 -7 76 -8 76 -1
1 -102 64 -224 141 l-222 139 20 30 c11 16 29 51 40 78 12 26 26 47 31 47 13
0 632 -240 641 -250 10 -9 13 -40 22 -180 3 -58 8 -118 10 -135 2 -16 7 -73
10 -125 3 -52 8 -122 11 -155 3 -33 6 -106 7 -162 2 -82 6 -105 20 -121 23
-25 44 -22 69 7 26 33 23 75 -6 99 -30 23 -34 50 -51 322 -3 47 -8 105 -10
130 -2 25 -7 90 -10 146 -3 55 -8 109 -10 120 -2 10 -4 35 -4 55 l-1 36 -122
47 c-68 26 -213 83 -323 126 -110 42 -210 81 -223 84 -18 6 -21 13 -17 34 12
59 16 190 7 245 -5 31 -7 57 -4 57 5 0 272 -134 506 -254 60 -31 119 -56 132
-56 23 0 24 4 25 63 1 34 3 76 4 92 1 17 5 89 9 160 4 72 9 155 11 185 2 30 6
111 10 180 6 100 11 130 26 149 22 27 24 50 8 85 -17 36 -46 39 -76 10 -21
-21 -24 -31 -18 -57 10 -41 11 -180 1 -332 -4 -66 -9 -167 -12 -225 -3 -58 -7
-125 -9 -150 -2 -25 -4 -58 -4 -73 -1 -28 -1 -28 -319 133 l-318 162 -32 67
c-17 37 -54 91 -80 121 l-49 55 22 30 c28 38 45 88 45 135 0 20 7 52 16 70 35
70 -23 152 -105 149 -20 -1 -63 8 -96 20 -59 21 -131 25 -185 11z"/>
</g>
</svg>
